# xmcd
#
# Track frame offsets:
#	183
#	14853
#	34465
#	55158
#	70210
#	87415
#	103243
#	121168
#	134863
#	153010
#	164563
#	180633
#	197140
#	219485
#	232843
#	249240
#	267673
#	288128
#	302060
#	319933
#
# Disc length: 4472 seconds
#
# Revision: 15
# Processed by: cddbd v1.5.2PL0 Copyright (c) Steve Scherf et al.
# Submitted via: EasyCDDAExtractor 16.0.6.1
#
DISCID=2c117614
DTITLE=Various Artist - The History Of Dance Volume 1 Number 4
DYEAR=1900
DGENRE=Blues
TTITLE0=Rose Royce - Cart Wash
TTITLE1=The Fatback Band - Party Time
TTITLE2=Donald Byrd - Change (makes you want to hustle)
TTITLE3=Yvonne Elliman - Love Me
TTITLE4=Brass Construction - Movin'
TTITLE5=T Connection - Do what you wanna do
TTITLE6=Gil Scott Heron - The Bottle
TTITLE7=O'Jays - Darlin' Darlin' Baby
TTITLE8=Earth Wind and Fire - Saturday Night
TTITLE9=Deniece Williams - Free
TTITLE10=Tavares - Whodunnit
TTITLE11=The Bar Kays - Shake your rump to the funk
TTITLE12=Norman Connors - Once I've been there
TTITLE13=Yvonne Elliman - If I can't have you
TTITLE14=Peaches and Herb - Shake your groove thing
TTITLE15=Hamilton Bohannon - Let's Start the Dance
TTITLE16=Raydio - Jack and Jill
TTITLE17=Alicia Bridges - I love the Nightlife
TTITLE18=Rose Royce - Love don't live here anymore
TTITLE19=Shalamar - Take that to the bank
EXTD=rlokker@worldonline.nl
EXTT0=
EXTT1=
EXTT2=
EXTT3=
EXTT4=
EXTT5=
EXTT6=
EXTT7=
EXTT8=
EXTT9=
EXTT10=
EXTT11=
EXTT12=
EXTT13=
EXTT14=
EXTT15=
EXTT16=
EXTT17=
EXTT18=
EXTT19=
PLAYORDER=
